<svg width="138" height="15" viewBox="0 0 138 15" fill="none" xmlns="http://www.w3.org/2000/svg">
<path d="M0.416153 14.8111H3.49271V9.31675H11.2891V6.5804H3.49271V3.33011H12.6645V0.441772H0.416153V14.8111Z" fill="black"/>
<path d="M27.4971 2.28044C26.8167 1.63617 25.9842 1.12944 25.0359 0.781971C24.0876 0.427261 23.0235 0.25354 21.8869 0.25354C20.7504 0.25354 19.6791 0.4345 18.7308 0.781971C17.7825 1.13668 16.9572 1.63617 16.2695 2.28044C15.5891 2.92471 15.0534 3.70653 14.6769 4.60417C14.3005 5.5018 14.1123 6.50077 14.1123 7.57937C14.1123 8.65798 14.3005 9.67144 14.6769 10.5763C15.0534 11.4812 15.5891 12.2775 16.2695 12.929C16.95 13.5805 17.7752 14.0944 18.7308 14.4564C19.6791 14.8183 20.7432 14.9993 21.8942 14.9993C23.0452 14.9993 24.1021 14.8183 25.0504 14.4564C25.9987 14.0944 26.8312 13.5805 27.5116 12.929C28.1921 12.2775 28.7278 11.4812 29.1042 10.5763C29.4806 9.67144 29.6688 8.66522 29.6688 7.57937C29.6688 6.49353 29.4806 5.5018 29.1042 4.60417C28.7278 3.70653 28.1921 2.92471 27.5116 2.28044H27.5044H27.4971ZM21.8797 12.082C21.1993 12.082 20.5695 11.9734 19.9976 11.7635C19.4257 11.5536 18.9262 11.2495 18.5064 10.8586C18.0937 10.4677 17.7607 9.9972 17.5291 9.44704C17.2975 8.89688 17.1744 8.27431 17.1744 7.57937C17.1744 6.88443 17.2902 6.26911 17.5291 5.71895C17.7607 5.17603 18.0937 4.71275 18.5064 4.33633C18.9262 3.9599 19.4257 3.6631 19.9976 3.46764C20.5695 3.26495 21.2065 3.16362 21.8869 3.16362C22.5674 3.16362 23.1972 3.26495 23.7763 3.46764C24.3482 3.6631 24.8477 3.9599 25.2603 4.33633C25.6729 4.71275 25.9987 5.17603 26.2376 5.71895C26.4765 6.26187 26.5923 6.88443 26.5923 7.57937C26.5923 8.27431 26.4765 8.89688 26.2376 9.44704C25.9987 9.9972 25.6729 10.475 25.2531 10.8586C24.8405 11.2495 24.341 11.5536 23.7691 11.7635C23.1972 11.9734 22.5602 12.082 21.8869 12.082H21.8797Z" fill="black"/>
<path d="M43.64 9.53391C44.0309 9.2154 44.3567 8.8462 44.61 8.43358C44.8706 8.02819 45.0589 7.57215 45.1819 7.08714C45.305 6.60213 45.3629 6.08817 45.3629 5.55973C45.3629 4.77068 45.2398 4.04677 44.9865 3.41698C44.7331 2.77995 44.3494 2.23703 43.8355 1.78821C43.3287 1.34663 42.6772 1.01363 41.9099 0.781983C41.1498 0.557575 40.2449 0.441772 39.2098 0.441772H32.2676V14.8111H35.3442V10.8369H39.2025L41.7 14.8111H45.457L42.5035 10.2361C42.9306 10.0406 43.3143 9.809 43.6473 9.54116L43.64 9.53391ZM42.1488 5.55248C42.1488 5.92167 42.0909 6.26191 41.9751 6.55871C41.8592 6.85551 41.6855 7.10161 41.4538 7.3043C41.215 7.51423 40.9182 7.67352 40.5635 7.78934C40.2015 7.90517 39.7672 7.97032 39.2822 7.97032H35.3442V3.30117H39.2822C40.2594 3.30117 40.9906 3.50387 41.4611 3.89477C41.9244 4.28568 42.1488 4.82134 42.1488 5.54524V5.55248Z" fill="black"/>
<path d="M64.9226 0.434492L61.2452 9.62799L60.7747 11.2278L60.1594 9.64248L58.8419 6.36321L61.3104 0.427246H58.118L57.3362 2.76546L56.4965 0.427246H53.3041L55.7726 6.36321L54.4696 9.5918L53.9773 11.235L53.3403 9.57731L49.6918 0.434492H46.333L52.363 14.8039H55.2731L56.5254 11.9083L57.3072 9.7221L58.0891 11.9155L59.3197 14.8039H62.237L68.2598 0.434492H64.9009H64.9226Z" fill="black"/>
<path d="M97.0781 9.53391C97.469 9.2154 97.7947 8.8462 98.0481 8.43358C98.3087 8.02819 98.4969 7.57215 98.62 7.08714C98.743 6.60213 98.8009 6.08817 98.8009 5.55973C98.8009 4.77068 98.6779 4.04677 98.4245 3.41698C98.1711 2.77995 97.7875 2.23703 97.2735 1.78821C96.7668 1.34663 96.1153 1.01363 95.3479 0.781983C94.5878 0.557575 93.683 0.441772 92.6478 0.441772H85.7056V14.8111H88.7822V10.8369H92.6406L95.138 14.8111H98.895L95.9415 10.2361C96.3686 10.0406 96.7523 9.809 97.0853 9.54116L97.0781 9.53391ZM95.5868 5.55248C95.5868 5.92167 95.5289 6.26191 95.4131 6.55871C95.2973 6.85551 95.1235 7.10161 94.8919 7.3043C94.653 7.51423 94.3562 7.67352 94.0015 7.78934C93.6395 7.90517 93.2052 7.97032 92.7202 7.97032H88.7822V3.30117H92.7202C93.6974 3.30117 94.4286 3.50387 94.8991 3.89477C95.3624 4.28568 95.5868 4.82134 95.5868 5.54524V5.55248Z" fill="black"/>
<path d="M113.091 2.34567C112.389 1.73036 111.491 1.25257 110.42 0.926815C109.363 0.601061 108.096 0.43457 106.662 0.43457H101.61V14.8039H106.684C108.118 14.8112 109.384 14.6302 110.441 14.2682C111.505 13.9063 112.403 13.3996 113.105 12.7553C113.807 12.111 114.343 11.3292 114.683 10.4461C115.024 9.56292 115.197 8.59291 115.197 7.55773C115.197 6.47189 115.024 5.47289 114.676 4.59698C114.329 3.71382 113.793 2.95373 113.083 2.33842L113.091 2.34567ZM107.328 11.9518H104.686V3.30846H107.328C108.11 3.30846 108.798 3.4098 109.384 3.61249C109.956 3.80794 110.448 4.09749 110.832 4.45943C111.209 4.82138 111.505 5.27021 111.694 5.78418C111.889 6.30538 111.983 6.91347 111.983 7.56498C111.983 8.21649 111.882 8.84625 111.694 9.38917C111.505 9.92485 111.209 10.3882 110.832 10.7646C110.448 11.141 109.963 11.4378 109.384 11.6477C108.798 11.8577 108.11 11.959 107.336 11.959L107.328 11.9518Z" fill="black"/>
<path d="M120.945 0.25354H117.854V14.6229H120.945V0.25354Z" fill="black"/>
<path d="M134.931 0.25354V4.68378L126.903 0.25354H123.971V14.6229H127.04V3.8151L134.923 8.13679V14.6229H138V0.25354H134.923H134.931Z" fill="black"/>
<path d="M74.4419 0.43457L68.0354 14.8039H71.2929L76.02 4.05405L80.8918 14.8039H84.1421L77.5401 0.43457H74.4419Z" fill="black"/>
</svg>
