<svg width="191" height="21" viewBox="0 0 191 21" fill="none" xmlns="http://www.w3.org/2000/svg">
<path d="M0.449997 20.1554H4.7V12.5655H15.47V8.78543H4.7V4.29544H17.37V0.30545H0.449997V20.1554Z" fill="black"/>
<path d="M37.86 2.84543C36.92 1.95543 35.77 1.25542 34.46 0.775421C33.15 0.285421 31.68 0.0454407 30.11 0.0454407C28.54 0.0454407 27.06 0.295421 25.75 0.775421C24.44 1.26542 23.3 1.95543 22.35 2.84543C21.41 3.73543 20.67 4.81545 20.15 6.05545C19.63 7.29545 19.37 8.67544 19.37 10.1654C19.37 11.6554 19.63 13.0555 20.15 14.3055C20.67 15.5555 21.41 16.6555 22.35 17.5555C23.29 18.4555 24.43 19.1654 25.75 19.6654C27.06 20.1654 28.53 20.4154 30.12 20.4154C31.71 20.4154 33.17 20.1654 34.48 19.6654C35.79 19.1654 36.94 18.4555 37.88 17.5555C38.82 16.6555 39.56 15.5555 40.08 14.3055C40.6 13.0555 40.86 11.6654 40.86 10.1654C40.86 8.66544 40.6 7.29545 40.08 6.05545C39.56 4.81545 38.82 3.73543 37.88 2.84543H37.87H37.86ZM30.1 16.3855C29.16 16.3855 28.29 16.2355 27.5 15.9455C26.71 15.6555 26.02 15.2355 25.44 14.6955C24.87 14.1555 24.41 13.5055 24.09 12.7455C23.77 11.9855 23.6 11.1254 23.6 10.1654C23.6 9.20544 23.76 8.35543 24.09 7.59543C24.41 6.84543 24.87 6.20546 25.44 5.68546C26.02 5.16546 26.71 4.75544 27.5 4.48544C28.29 4.20544 29.17 4.06546 30.11 4.06546C31.05 4.06546 31.92 4.20544 32.72 4.48544C33.51 4.75544 34.2 5.16546 34.77 5.68546C35.34 6.20546 35.79 6.84543 36.12 7.59543C36.45 8.34543 36.61 9.20544 36.61 10.1654C36.61 11.1254 36.45 11.9855 36.12 12.7455C35.79 13.5055 35.34 14.1655 34.76 14.6955C34.19 15.2355 33.5 15.6555 32.71 15.9455C31.92 16.2355 31.04 16.3855 30.11 16.3855H30.1Z" fill="black"/>
<path d="M60.16 12.8654C60.7 12.4254 61.15 11.9154 61.5 11.3454C61.86 10.7854 62.12 10.1554 62.29 9.48544C62.46 8.81544 62.54 8.10546 62.54 7.37546C62.54 6.28546 62.37 5.28544 62.02 4.41544C61.67 3.53544 61.14 2.78544 60.43 2.16544C59.73 1.55544 58.83 1.09542 57.77 0.775421C56.72 0.465421 55.47 0.30545 54.04 0.30545H44.45V20.1554H48.7V14.6654H54.03L57.48 20.1554H62.67L58.59 13.8354C59.18 13.5654 59.71 13.2455 60.17 12.8755L60.16 12.8654ZM58.1 7.36545C58.1 7.87545 58.02 8.34546 57.86 8.75546C57.7 9.16546 57.46 9.50543 57.14 9.78543C56.81 10.0754 56.4 10.2955 55.91 10.4555C55.41 10.6155 54.81 10.7055 54.14 10.7055H48.7V4.25546H54.14C55.49 4.25546 56.5 4.53547 57.15 5.07547C57.79 5.61547 58.1 6.35544 58.1 7.35544V7.36545Z" fill="black"/>
<path d="M89.56 0.295441L84.48 12.9955L83.83 15.2055L82.98 13.0155L81.16 8.48544L84.57 0.285431H80.16L79.08 3.51547L77.92 0.285431H73.51L76.92 8.48544L75.12 12.9455L74.44 15.2154L73.56 12.9254L68.52 0.295441H63.88L72.21 20.1455H76.23L77.96 16.1455L79.04 13.1255L80.12 16.1554L81.82 20.1455H85.85L94.17 0.295441H89.53H89.56Z" fill="black"/>
<path d="M133.98 12.8654C134.52 12.4254 134.97 11.9154 135.32 11.3454C135.68 10.7854 135.94 10.1554 136.11 9.48544C136.28 8.81544 136.36 8.10546 136.36 7.37546C136.36 6.28546 136.19 5.28544 135.84 4.41544C135.49 3.53544 134.96 2.78544 134.25 2.16544C133.55 1.55544 132.65 1.09542 131.59 0.775421C130.54 0.465421 129.29 0.30545 127.86 0.30545H118.27V20.1554H122.52V14.6654H127.85L131.3 20.1554H136.49L132.41 13.8354C133 13.5654 133.53 13.2455 133.99 12.8755L133.98 12.8654ZM131.92 7.36545C131.92 7.87545 131.84 8.34546 131.68 8.75546C131.52 9.16546 131.28 9.50543 130.96 9.78543C130.63 10.0754 130.22 10.2955 129.73 10.4555C129.23 10.6155 128.63 10.7055 127.96 10.7055H122.52V4.25546H127.96C129.31 4.25546 130.32 4.53547 130.97 5.07547C131.61 5.61547 131.92 6.35544 131.92 7.35544V7.36545Z" fill="black"/>
<path d="M156.1 2.93546C155.13 2.08546 153.89 1.42543 152.41 0.975433C150.95 0.525433 149.2 0.295441 147.22 0.295441H140.24V20.1455H147.25C149.23 20.1555 150.98 19.9054 152.44 19.4054C153.91 18.9054 155.15 18.2055 156.12 17.3155C157.09 16.4255 157.83 15.3455 158.3 14.1255C158.77 12.9055 159.01 11.5655 159.01 10.1355C159.01 8.63547 158.77 7.25544 158.29 6.04544C157.81 4.82544 157.07 3.77545 156.09 2.92545L156.1 2.93546ZM148.14 16.2055H144.49V4.26547H148.14C149.22 4.26547 150.17 4.40546 150.98 4.68546C151.77 4.95546 152.45 5.35544 152.98 5.85544C153.5 6.35544 153.91 6.97546 154.17 7.68546C154.44 8.40546 154.57 9.24548 154.57 10.1455C154.57 11.0455 154.43 11.9154 154.17 12.6654C153.91 13.4054 153.5 14.0455 152.98 14.5655C152.45 15.0855 151.78 15.4954 150.98 15.7854C150.17 16.0754 149.22 16.2154 148.15 16.2154L148.14 16.2055Z" fill="black"/>
<path d="M166.95 0.0454407H162.68V19.8955H166.95V0.0454407Z" fill="black"/>
<path d="M186.27 0.0454407V6.16544L175.18 0.0454407H171.13V19.8955H175.37V4.96542L186.26 10.9355V19.8955H190.51V0.0454407H186.26H186.27Z" fill="black"/>
<path d="M102.71 0.295441L93.86 20.1455H98.36L104.89 5.29544L111.62 20.1455H116.11L106.99 0.295441H102.71Z" fill="black"/>
</svg>
